# xmcd
#
# Track frame offsets:
#	150
#	12203
#	31569
#	42984
#	60427
#	77067
#	94431
#	106548
#	125918
#	137321
#	154733
#	171427
#
# Disc length: 2519 seconds
#
# Revision: 1
# Processed by: cddbd v1.5.2PL0 Copyright (c) Steve Scherf et al.
# Submitted via: audiograbber 1.83.01
#
DISCID=8d09d50c
DTITLE=George Jones - Chartbuster Disc 154
DYEAR=1900
DGENRE=
TTITLE0=Sinners and Saints (vocal)
TTITLE1=The Cold Hard Truth (vocal)
TTITLE2=Ain't Love A Lot Like That (vocal)
TTITLE3=Real Deal (vocal)
TTITLE4=You Never Know Just How Good You've Got It ( vocal)
TTITLE5=When The Last Curtain Falls (vocal)
TTITLE6=Sinners and Saints
TTITLE7=The Cold Hard Truth
TTITLE8=Ain't Love A Lot Like That
TTITLE9=Real Deal
TTITLE10=You Never Know Just How Good You've Got It
TTITLE11=When The Last Curtain Falls
EXTD=
EXTT0=
EXTT1=
EXTT2=
EXTT3=
EXTT4=
EXTT5=
EXTT6=
EXTT7=
EXTT8=
EXTT9=
EXTT10=
EXTT11=
PLAYORDER=
